REM DIRINDEX 1\2\4,1\2\5,1\3\6,1\3\7,1\3\8
REM DIRNAME folder01,folder02,folder03,folder04,folder05,folder06,folder07,folder08
TITLE ""
FILE "LV5_082_WORDS.mp3" MP3
  TRACK 01 AUDIO
    TITLE "0:"
    INDEX 01 00:00:00
  TRACK 02 AUDIO
    TITLE "6:cjc094_2879"
    INDEX 01 00:00:01
  TRACK 03 AUDIO
    TITLE "0:"
    INDEX 01 00:02:06
  TRACK 04 AUDIO
    TITLE "7:cjc094_2880"
    INDEX 01 00:02:59
  TRACK 05 AUDIO
    TITLE "0:"
    INDEX 01 00:04:15
  TRACK 06 AUDIO
    TITLE "8:cjc094_2881"
    INDEX 01 00:04:23
  TRACK 07 AUDIO
    TITLE "0:"
    INDEX 01 00:05:44
  TRACK 08 AUDIO
    TITLE "7:cjc094_2882"
    INDEX 01 00:06:12
  TRACK 09 AUDIO
    TITLE "0:"
    INDEX 01 00:07:25
  TRACK 10 AUDIO
    TITLE "8:cjc094_2883"
    INDEX 01 00:07:35
  TRACK 11 AUDIO
    TITLE "0:"
    INDEX 01 00:08:34
  TRACK 12 AUDIO
    TITLE "7:cjc094_2884"
    INDEX 01 00:09:04
  TRACK 13 AUDIO
    TITLE "0:"
    INDEX 01 00:10:04
  TRACK 14 AUDIO
    TITLE "8:cjc094_2885"
    INDEX 01 00:10:10
  TRACK 15 AUDIO
    TITLE "0:"
    INDEX 01 00:11:68
  TRACK 16 AUDIO
    TITLE "7:cjc094_2886"
    INDEX 01 00:12:40
  TRACK 17 AUDIO
    TITLE "0:"
    INDEX 01 00:13:57
  TRACK 18 AUDIO
    TITLE "8:cjc094_2887"
    INDEX 01 00:13:69
  TRACK 19 AUDIO
    TITLE "0:"
    INDEX 01 00:14:72
  TRACK 20 AUDIO
    TITLE "7:cjc094_2888"
    INDEX 01 00:15:38
  TRACK 21 AUDIO
    TITLE "0:"
    INDEX 01 00:16:40
  TRACK 22 AUDIO
    TITLE "8:cjc094_2889"
    INDEX 01 00:16:53
  TRACK 23 AUDIO
    TITLE "0:"
    INDEX 01 00:18:70
  TRACK 24 AUDIO
    TITLE "7:cjc094_2890"
    INDEX 01 00:19:42
  TRACK 25 AUDIO
    TITLE "0:"
    INDEX 01 00:20:55
  TRACK 26 AUDIO
    TITLE "8:cjc094_2891"
    INDEX 01 00:20:67
  TRACK 27 AUDIO
    TITLE "0:"
    INDEX 01 00:22:13
  TRACK 28 AUDIO
    TITLE "7:cjc094_2892"
    INDEX 01 00:22:60
  TRACK 29 AUDIO
    TITLE "0:"
    INDEX 01 00:23:71
  TRACK 30 AUDIO
    TITLE "8:cjc094_2893"
    INDEX 01 00:24:10
  TRACK 31 AUDIO
    TITLE "0:"
    INDEX 01 00:26:05
  TRACK 32 AUDIO
    TITLE "7:cjc094_2894"
    INDEX 01 00:26:48
  TRACK 33 AUDIO
    TITLE "0:"
    INDEX 01 00:27:53
  TRACK 34 AUDIO
    TITLE "8:cjc094_2895"
    INDEX 01 00:27:65
  TRACK 35 AUDIO
    TITLE "0:"
    INDEX 01 00:29:15
  TRACK 36 AUDIO
    TITLE "7:cjc094_2896"
    INDEX 01 00:29:58
  TRACK 37 AUDIO
    TITLE "0:"
    INDEX 01 00:30:50
  TRACK 38 AUDIO
    TITLE "8:cjc094_2897"
    INDEX 01 00:30:61
  TRACK 39 AUDIO
    TITLE "0:"
    INDEX 01 00:32:25
  TRACK 40 AUDIO
    TITLE "7:cjc094_2898"
    INDEX 01 00:33:01
  TRACK 41 AUDIO
    TITLE "0:"
    INDEX 01 00:33:64
  TRACK 42 AUDIO
    TITLE "8:cjc094_2899"
    INDEX 01 00:34:00
  TRACK 43 AUDIO
    TITLE "0:"
    INDEX 01 00:35:02
  TRACK 44 AUDIO
    TITLE "7:cjc094_2900"
    INDEX 01 00:35:45
  TRACK 45 AUDIO
    TITLE "0:"
    INDEX 01 00:36:38
  TRACK 46 AUDIO
    TITLE "8:cjc094_2901"
    INDEX 01 00:36:48
  TRACK 47 AUDIO
    TITLE "0:"
    INDEX 01 00:37:67
  TRACK 48 AUDIO
    TITLE "7:cjc094_2902"
    INDEX 01 00:38:39
  TRACK 49 AUDIO
    TITLE "0:"
    INDEX 01 00:39:52
  TRACK 50 AUDIO
    TITLE "8:cjc094_2903"
    INDEX 01 00:39:62
  TRACK 51 AUDIO
    TITLE "0:"
    INDEX 01 00:43:01
  TRACK 52 AUDIO
    TITLE "7:cjc094_2904"
    INDEX 01 00:43:50
  TRACK 53 AUDIO
    TITLE "0:"
    INDEX 01 00:44:60
  TRACK 54 AUDIO
    TITLE "8:cjc094_2905"
    INDEX 01 00:44:67
  TRACK 55 AUDIO
    TITLE "0:"
    INDEX 01 00:46:27
  TRACK 56 AUDIO
    TITLE "7:cjc094_2906"
    INDEX 01 00:46:70
  TRACK 57 AUDIO
    TITLE "0:"
    INDEX 01 00:47:70
  TRACK 58 AUDIO
    TITLE "8:cjc094_2907"
    INDEX 01 00:48:04
  TRACK 59 AUDIO
    TITLE "0:"
    INDEX 01 00:50:23
  TRACK 60 AUDIO
    TITLE "7:cjc094_2908"
    INDEX 01 00:50:70
  TRACK 61 AUDIO
    TITLE "0:"
    INDEX 01 00:51:69
  TRACK 62 AUDIO
    TITLE "8:cjc094_2909"
    INDEX 01 00:52:06
  TRACK 63 AUDIO
    TITLE "0:"
    INDEX 01 00:53:15
  TRACK 64 AUDIO
    TITLE "7:cjc094_2910"
    INDEX 01 00:53:60
  TRACK 65 AUDIO
    TITLE "0:"
    INDEX 01 00:54:70
  TRACK 66 AUDIO
    TITLE "8:cjc094_2911"
    INDEX 01 00:55:06
  TRACK 67 AUDIO
    TITLE "0:"
    INDEX 01 00:57:64
